<svg width="8" height="12" viewBox="0 0 8 12" fill="none" xmlns="http://www.w3.org/2000/svg">
<path d="M0.442228 10.9601C0.216197 10.7648 0.216197 10.4482 0.442228 10.253L6.17194 5.30323C6.39797 5.10797 6.76443 5.10797 6.99047 5.30323C7.2165 5.49849 7.2165 5.81507 6.99047 6.01034L1.26076 10.9601C1.03473 11.1553 0.668259 11.1553 0.442228 10.9601Z" fill="white"/>
<path d="M6.99047 6.01034C6.76443 6.2056 6.39797 6.20559 6.17194 6.01033L0.442235 1.06058C0.216204 0.865323 0.216204 0.54874 0.442235 0.353478C0.668265 0.158216 1.03473 0.158216 1.26076 0.353478L6.99047 5.30323C7.2165 5.49849 7.2165 5.81507 6.99047 6.01034Z" fill="white"/>
</svg>
