<svg width="82" height="18" viewBox="0 0 82 18" fill="none" xmlns="http://www.w3.org/2000/svg">
<path d="M30.7778 13.4577C29.506 13.137 28.4332 12.0048 28.1735 10.7086C28.0685 10.1854 28.0811 9.39585 28.2022 8.90567C28.364 8.24973 28.6204 7.77462 29.0933 7.25288C29.8542 6.41412 30.8904 6.01806 32.1185 6.09738C33.1047 6.16079 33.8602 6.48179 34.4662 7.09451L34.7707 7.40215L34.347 7.81244C34.1451 8.00915 33.9401 8.20251 33.7323 8.39246L33.5409 8.5622L33.3042 8.33019C32.9456 7.97848 32.5654 7.8059 32.0669 7.76865C30.8041 7.67425 29.9677 8.50221 29.9753 9.83826C29.9821 10.9699 30.5171 11.6946 31.4827 11.8806C32.1819 12.0151 32.7592 11.845 33.2867 11.3489L33.5511 11.1007L34.7811 12.2701L34.4309 12.5965C34.0021 12.996 33.4374 13.3167 32.9112 13.4591C32.4208 13.5919 31.3073 13.5911 30.7778 13.4577ZM54.159 13.5208C53.4325 13.4196 52.1391 12.9545 52.1391 12.7944C52.1391 12.7662 52.2747 12.439 52.4406 12.0671L52.7423 11.391L53.0009 11.528C53.6356 11.8646 54.1612 11.9872 54.9788 11.9886C55.6741 11.9903 55.7865 11.9735 55.9551 11.8428C56.1054 11.7262 56.1456 11.6395 56.1456 11.4299C56.1456 11.0475 55.9742 10.9488 54.7639 10.6344C54.1891 10.4848 53.5347 10.2662 53.3101 10.1482C52.5611 9.75466 52.2304 9.16668 52.2883 8.33076C52.39 6.86023 53.6375 6.04478 55.6025 6.16363C56.5931 6.22391 57.7334 6.58358 57.7238 6.83293C57.717 7.01547 57.2157 8.13941 57.149 8.12207C57.1157 8.11354 56.8156 8.00549 56.4824 7.8821C55.4374 7.49541 54.4015 7.58896 54.2197 8.08681C54.1355 8.31655 54.2197 8.53974 54.4515 8.69726C54.5414 8.75867 55.0495 8.9196 55.5809 9.05522C56.7562 9.35519 57.2898 9.6071 57.65 10.033C58.4389 10.9653 58.0447 12.5138 56.8579 13.1435C56.7092 13.2223 56.4124 13.3349 56.1984 13.3935C55.7979 13.5029 54.5775 13.5791 54.1593 13.5208H54.159ZM62.206 13.4338C60.9612 13.0563 60.0226 12.0884 59.7167 10.8667C59.5833 10.3341 59.585 9.39442 59.72 8.84852C60.156 7.08996 61.741 5.97541 63.6328 6.09738C64.637 6.16221 65.3903 6.49259 65.9769 7.12522L66.2461 7.4158L65.0522 8.58296L64.7767 8.30745C64.0682 7.59948 62.8242 7.5682 62.0903 8.24006C61.6593 8.63471 61.4759 9.10498 61.4753 9.81892C61.4737 10.7259 61.8219 11.381 62.4839 11.7176C62.801 11.8791 62.9492 11.9104 63.3766 11.9076C63.9785 11.9033 64.3751 11.7495 64.7911 11.3583L65.0642 11.1018L65.6379 11.6511C65.9534 11.9534 66.2117 12.2374 66.2119 12.2826C66.213 12.406 65.6223 12.907 65.2022 13.1396C64.9986 13.2522 64.6457 13.3946 64.4183 13.4554C63.8574 13.6061 62.7368 13.5948 62.2057 13.4338H62.206ZM40.3612 12.5129L39.7281 11.5351H38.6711V13.4264H36.7182V6.28163H38.6588C40.2475 6.28163 40.6659 6.3021 40.9652 6.3945C41.8276 6.66063 42.3904 7.12039 42.7006 7.81215C42.8548 8.15619 42.8783 8.29949 42.8788 8.90823C42.8799 9.49508 42.8542 9.66795 42.7214 9.97331C42.5722 10.3162 42.0867 10.8655 41.7081 11.1191L41.5469 11.2272L42.2179 12.2744C42.5869 12.8501 42.9114 13.3605 42.9387 13.4088C42.9778 13.4773 42.7717 13.4958 41.9916 13.4935L40.9942 13.4907L40.3612 12.5129ZM40.4478 9.82177C40.9469 9.56872 41.0918 8.82947 40.7553 8.25399C40.5536 7.90911 40.2778 7.82267 39.3804 7.82267H38.6036V10.0091L39.3949 9.98156C39.9946 9.96109 40.2496 9.92242 40.4478 9.82177ZM79.4142 12.5155L78.7784 11.5351H77.7266V13.4264H75.7739V6.28163H77.7146C79.303 6.28163 79.7214 6.3021 80.021 6.3945C80.8642 6.65494 81.4492 7.13489 81.7605 7.82267C81.9114 8.15647 81.9349 8.30119 81.9352 8.90823C81.9352 9.53175 81.9149 9.65202 81.7493 10.0029C81.5757 10.3708 81.1365 10.8681 80.7639 11.1189L80.6027 11.2275L81.2734 12.2744C81.6424 12.8501 81.9669 13.3605 81.9945 13.4088C82.0336 13.4773 81.8266 13.4964 81.0471 13.4961H80.05L79.4142 12.5155ZM79.4705 9.81892C79.836 9.59516 79.9778 9.3441 79.9778 8.92131C79.9778 8.46468 79.7974 8.11439 79.4752 7.9455C79.2926 7.8494 79.0698 7.82296 78.4507 7.82267H77.6594V10.0091L78.4507 9.98412C79.0914 9.96393 79.2855 9.93237 79.4702 9.81921L79.4705 9.81892ZM6.22812 12.7796L6.21445 12.0981L3.08287 12.0577L4.65071 12.0415C5.9034 12.0287 6.22511 12.0443 6.25272 12.1183C6.27185 12.1694 6.27704 12.4927 6.26447 12.8365L6.24178 13.4614L6.22812 12.7796ZM45.0004 9.85389V6.28163H50.3203V7.82267H46.8135L46.8329 8.43568L46.8523 9.04868L49.9163 9.08622V10.5519L46.8523 10.5897V11.9204L50.4548 11.9579V13.4264H45.0004V9.85389ZM68.1649 9.85389V6.28163H73.552V7.82267H70.0504V9.08366H73.0805V10.5545H70.0504V11.9553H73.6193V13.4264H68.1649V9.85389ZM2.20137 11.6577L2.0729 11.5001L2.2246 11.6338C2.36674 11.7589 2.40664 11.8152 2.35307 11.8152C2.34022 11.8152 2.27189 11.7441 2.20137 11.6577ZM1.708 10.3034C1.71128 10.2218 1.72714 10.2053 1.74873 10.261C1.76814 10.3117 1.76568 10.3719 1.74326 10.3953C1.72112 10.4186 1.705 10.3773 1.708 10.3034ZM1.708 8.97277C1.71128 8.89088 1.72714 8.87439 1.74873 8.93012C1.76814 8.98073 1.76568 9.04101 1.74326 9.06461C1.72112 9.08764 1.705 9.04641 1.708 8.97248V8.97277ZM6.23905 6.10676C6.23905 5.72122 6.25053 5.57252 6.2642 5.77609C6.27786 5.97967 6.27786 6.29499 6.26392 6.47667C6.25026 6.65836 6.23905 6.49174 6.23932 6.10648L6.23905 6.10676ZM2.70048 5.46305C2.74913 5.44286 2.80708 5.44514 2.82949 5.46874C2.8519 5.49177 2.81227 5.50854 2.7412 5.50542C2.66276 5.502 2.6469 5.48551 2.70048 5.46277V5.46305ZM6.93851 5.45907C7.17002 5.44542 7.54886 5.44542 7.78038 5.45907C8.01189 5.47272 7.82247 5.48381 7.35944 5.48381C6.89642 5.48381 6.707 5.47243 6.93851 5.45907ZM11.9216 5.45907C12.247 5.44578 12.5727 5.44578 12.898 5.45907C13.1667 5.47215 12.9469 5.48295 12.4098 5.48295C11.8727 5.48295 11.6532 5.47215 11.9216 5.45879V5.45907ZM17.1095 5.45907C17.3786 5.44528 17.6481 5.44528 17.9172 5.45907C18.1288 5.47329 17.9383 5.48438 17.4938 5.48409C17.0494 5.48409 16.8761 5.47272 17.1092 5.45879L17.1095 5.45907ZM19.5673 5.45907C19.8188 5.44542 20.2127 5.44542 20.4428 5.45907C20.6724 5.47272 20.4669 5.48381 19.9853 5.48352C19.5039 5.48352 19.3156 5.47215 19.5671 5.45879L19.5673 5.45907Z" fill="#A4A8AB"/>
<path d="M24.0588 8.80351V0.257812H25.0018V17.3492H24.0588V8.80351Z" fill="#26A8E0"/>
<path d="M2.51054 13.3471C1.97098 13.2549 1.24965 12.8745 0.874093 12.4838C0.499626 12.0943 0.262373 11.642 0.108759 11.0264C-0.037474 10.4378 -0.0361073 8.8223 0.112039 8.10296C0.380726 6.79648 1.10424 5.958 2.27493 5.59634C2.52175 5.51986 3.09192 5.48375 4.41294 5.45986L6.21421 5.42773V6.75724L4.68217 6.78852C3.46092 6.81411 3.08919 6.84425 2.84811 6.93921C2.05325 7.2514 1.70557 8.07651 1.70366 9.65424C1.70229 10.6153 1.85645 11.2536 2.18336 11.6408C2.51874 12.0383 2.82897 12.0957 4.64391 12.0957H6.21421V13.4264L4.54769 13.4184C3.63093 13.4139 2.71445 13.3817 2.51054 13.3471ZM7.85913 9.66163C7.20422 7.59089 6.64416 5.80987 6.61437 5.7041L6.55997 5.51161L8.20052 5.51303L8.96121 8.19138C9.25039 9.20826 9.53876 10.2254 9.82631 11.2428C9.88371 11.4478 9.94603 11.5993 9.96489 11.5797C9.98402 11.5598 10.3238 10.1945 10.7201 8.54508L11.4412 5.5463L12.3883 5.52696C13.2476 5.50934 13.3386 5.519 13.3687 5.63216C13.867 7.49166 14.9967 11.5149 15.0319 11.5547C15.0582 11.5848 15.4439 10.2451 15.8886 8.57778L16.6976 5.5463L17.4881 5.5264C18.1414 5.51019 18.2748 5.52412 18.2562 5.60601C18.2442 5.66031 17.7341 7.44275 17.1229 9.56723L16.0118 13.4298L14.0723 13.392L13.261 10.4327C12.8147 8.80496 12.4293 7.49706 12.4047 7.52577C12.3801 7.55449 12.0504 8.89423 11.6721 10.5027L10.9841 13.4272H9.05004L7.85913 9.66163ZM19.2107 9.46914V5.51133H20.8269V13.427H19.2107V9.46914Z" fill="#30343E"/>
</svg>
