<svg width="464" height="325" viewBox="0 0 464 325" fill="none" xmlns="http://www.w3.org/2000/svg">
<path d="M464 143.326C464 74.4181 411.802 18.5574 347.413 18.5574C331.406 18.5529 315.592 22.0517 301.08 28.8082C286.194 19.7049 263.14 13.8618 237.259 13.8618C204.033 13.8618 175.468 23.4924 162.864 37.2885C160.772 36.8354 158.665 36.4147 156.538 36.0399C80.2107 22.59 10.613 65.3065 1.08679 131.45C-6.18948 181.971 23.688 231.544 72.2189 258.138C93.4415 296.432 159.301 324.348 237.259 324.348C319.62 324.348 388.477 293.19 405.461 251.553C440.444 230.018 464 189.616 464 143.326Z" fill="url(#paint0_linear)"/>
<path d="M22.1553 124.178C22.1553 124.178 34.0426 143.042 69.6506 150.086C113.5 158.761 117.146 209.549 117.146 209.549C117.146 209.549 95.4613 177.867 63.4138 170.479C35.9257 164.142 22.1553 147.206 22.1553 124.178Z" fill="#CEF8FF"/>
<path d="M164.027 62.6089C164.027 62.6089 158.665 81.8891 137.716 93.4842C110.433 108.585 116.328 158.771 116.328 158.771C116.328 158.771 126.998 126.786 144.66 113.832C160.711 102.06 167.404 86.2248 164.027 62.6089Z" fill="#CEF8FF"/>
<path d="M197.868 119.176C197.868 119.176 189.426 135.73 156.898 141.525C119.177 148.244 115.927 192.819 115.927 192.819C115.927 192.819 125.458 164.967 153.173 158.905C179.659 153.112 197.868 139.041 197.868 119.176Z" fill="#CEF8FF"/>
<path d="M76.1175 46.262C76.1175 46.262 75.3025 63.9819 95.3669 78.0987C121.376 96.3951 111.871 144.284 111.871 144.284C111.871 144.284 109.93 115.391 90.1145 97.6129C75.0444 84.0925 68.5862 64.2338 76.1175 46.262Z" fill="#CEF8FF"/>
<path d="M60.1076 91.9514C60.1076 91.9514 59.7449 108.726 88.7542 124.539C124.977 144.284 114.942 185.957 114.942 185.957C114.942 185.957 110.478 156.162 82.8898 141.619C58.9074 128.976 51.33 115.863 60.1076 91.9514Z" fill="#CEF8FF"/>
<path d="M118.591 244.966C118.527 244.966 118.463 244.961 118.4 244.95C118.251 244.926 118.108 244.872 117.98 244.792C117.852 244.712 117.741 244.607 117.653 244.484C117.565 244.361 117.502 244.222 117.468 244.075C117.434 243.928 117.43 243.775 117.454 243.626C121.104 221.726 116.117 206.554 106.889 189.174C106.817 189.04 106.773 188.894 106.759 188.743C106.744 188.592 106.759 188.44 106.803 188.295C106.848 188.15 106.92 188.016 107.016 187.899C107.113 187.782 107.231 187.685 107.365 187.614C107.498 187.543 107.645 187.5 107.796 187.485C107.946 187.471 108.098 187.486 108.243 187.531C108.388 187.575 108.522 187.648 108.639 187.744C108.756 187.841 108.852 187.96 108.923 188.093C118.378 205.9 123.482 221.464 119.725 244.004C119.681 244.272 119.542 244.516 119.334 244.693C119.127 244.869 118.863 244.966 118.591 244.966Z" fill="#CEF8FF"/>
<path d="M111.584 244.966C111.297 244.966 111.021 244.859 110.81 244.666C110.598 244.473 110.466 244.208 110.439 243.923C106.72 204.304 112.453 193.562 126.304 167.61C126.448 167.341 126.693 167.139 126.985 167.05C127.277 166.961 127.593 166.992 127.862 167.136C128.132 167.28 128.333 167.525 128.422 167.817C128.511 168.109 128.48 168.425 128.336 168.694C114.715 194.215 109.077 204.778 112.731 243.707C112.76 244.011 112.666 244.314 112.471 244.549C112.277 244.785 111.996 244.933 111.692 244.961C111.656 244.965 111.62 244.967 111.584 244.966Z" fill="#CEF8FF"/>
<path d="M107.172 244.966C106.993 244.966 106.816 244.924 106.656 244.843C106.496 244.763 106.357 244.646 106.25 244.502C106.143 244.359 106.07 244.192 106.039 244.016C106.007 243.84 106.017 243.659 106.067 243.487C115.231 212.709 116.926 188.488 111.249 169.439C111.162 169.147 111.194 168.831 111.34 168.563C111.485 168.294 111.731 168.094 112.024 168.007C112.316 167.92 112.631 167.953 112.9 168.098C113.169 168.243 113.369 168.489 113.456 168.782C119.265 188.273 117.57 212.924 108.274 244.143C108.204 244.381 108.058 244.589 107.859 244.738C107.661 244.886 107.42 244.966 107.172 244.966Z" fill="#CEF8FF"/>
<path d="M115.059 244.966C114.769 244.966 114.489 244.856 114.277 244.658C114.064 244.46 113.934 244.19 113.912 243.9C109.147 179.895 116.537 148.036 119.319 136.042L119.673 134.505C119.741 134.207 119.925 133.948 120.183 133.786C120.442 133.623 120.755 133.57 121.052 133.638C121.35 133.706 121.609 133.89 121.771 134.149C121.934 134.407 121.987 134.72 121.919 135.018L121.562 136.563C118.802 148.463 111.47 180.075 116.208 243.73C116.231 244.034 116.132 244.335 115.932 244.566C115.733 244.798 115.45 244.94 115.146 244.963C115.117 244.965 115.088 244.966 115.059 244.966Z" fill="#CEF8FF"/>
<path d="M111.576 244.97C111.357 244.97 111.143 244.908 110.959 244.791C110.774 244.674 110.627 244.507 110.533 244.31C106.54 235.826 102.9 214.343 106.042 198.631C112.673 165.474 111.643 150.041 110.45 132.171C110.278 129.6 110.103 126.979 109.946 124.245C109.937 124.094 109.958 123.943 110.008 123.8C110.058 123.657 110.135 123.525 110.236 123.412C110.336 123.299 110.458 123.207 110.594 123.142C110.731 123.076 110.878 123.037 111.029 123.029C111.18 123.02 111.331 123.041 111.474 123.091C111.617 123.141 111.749 123.218 111.862 123.319C111.975 123.419 112.067 123.541 112.132 123.677C112.198 123.813 112.237 123.961 112.245 124.112C112.402 126.839 112.576 129.454 112.748 132.017C113.951 150.051 114.991 165.625 108.3 199.082C105.25 214.334 108.759 235.132 112.617 243.329C112.682 243.466 112.718 243.614 112.726 243.765C112.733 243.916 112.71 244.067 112.659 244.209C112.608 244.352 112.529 244.482 112.427 244.594C112.325 244.706 112.202 244.796 112.066 244.861C111.913 244.933 111.745 244.971 111.576 244.97Z" fill="#CEF8FF"/>
<path d="M112.31 241.16C103.422 241.16 96.2178 241.843 96.2178 242.686L101.825 269.702H122.796L128.403 242.686C128.403 241.843 121.199 241.16 112.31 241.16Z" fill="#CEF8FF"/>
<path d="M241.915 0H404.074C405.734 0 407.325 0.659109 408.498 1.83233C409.671 3.00555 410.33 4.59678 410.33 6.25597V113.021C410.33 114.68 409.671 116.271 408.498 117.445C407.325 118.618 405.734 119.277 404.075 119.277H241.915C240.256 119.277 238.665 118.618 237.492 117.444C236.318 116.271 235.659 114.68 235.659 113.021V6.25597C235.659 4.59679 236.318 3.00556 237.492 1.83233C238.665 0.659111 240.256 1.35298e-06 241.915 0V0Z" fill="#3074FE"/>
<path d="M235.417 6.05591H397.576C398.398 6.05591 399.211 6.21771 399.97 6.53207C400.729 6.84644 401.419 7.30721 402 7.88809C402.581 8.46896 403.041 9.15856 403.356 9.91751C403.67 10.6765 403.832 11.4899 403.832 12.3114V119.077C403.832 119.899 403.67 120.712 403.356 121.471C403.041 122.23 402.581 122.92 402 123.501C401.419 124.081 400.729 124.542 399.97 124.857C399.211 125.171 398.398 125.333 397.576 125.333H235.417C233.758 125.333 232.167 124.674 230.993 123.5C229.82 122.327 229.161 120.736 229.161 119.076V12.3121C229.161 10.6529 229.82 9.06158 230.993 7.88831C232.167 6.71504 233.758 6.05591 235.417 6.05591Z" fill="#92F1FF"/>
<path d="M398.853 24.884H234.14V119.422H398.853V24.884Z" fill="white"/>
<path d="M394.251 29.4072H344.223V114.952H394.251V29.4072Z" fill="#3074FE"/>
<path d="M340.004 29.4072H239.153V95.8564H340.004V29.4072Z" fill="#3074FE"/>
<path d="M395.656 16.1522C395.656 16.7391 395.482 17.3129 395.155 17.8008C394.829 18.2888 394.366 18.6691 393.824 18.8937C393.281 19.1182 392.685 19.1769 392.109 19.0623C391.534 18.9478 391.005 18.6651 390.59 18.25C390.175 17.8349 389.893 17.3061 389.778 16.7305C389.664 16.1548 389.723 15.5582 389.947 15.016C390.172 14.4739 390.553 14.0105 391.041 13.6846C391.529 13.3587 392.103 13.1849 392.689 13.1851C393.079 13.185 393.465 13.2618 393.825 13.4109C394.185 13.56 394.512 13.7786 394.787 14.0542C395.063 14.3297 395.281 14.6568 395.43 15.0168C395.579 15.3768 395.656 15.7626 395.656 16.1522Z" fill="white"/>
<path d="M382.85 19.1194C384.489 19.1194 385.818 17.791 385.818 16.1522C385.818 14.5135 384.489 13.1851 382.85 13.1851C381.212 13.1851 379.883 14.5135 379.883 16.1522C379.883 17.791 381.212 19.1194 382.85 19.1194Z" fill="white"/>
<path d="M375.978 16.1522C375.978 16.739 375.804 17.3126 375.478 17.8004C375.152 18.2882 374.689 18.6684 374.147 18.8928C373.604 19.1173 373.008 19.1759 372.432 19.0614C371.857 18.9468 371.328 18.6642 370.914 18.2492C370.499 17.8342 370.216 17.3056 370.102 16.7301C369.987 16.1546 370.046 15.5581 370.271 15.016C370.496 14.4739 370.876 14.0107 371.364 13.6848C371.852 13.3589 372.425 13.185 373.012 13.1851C373.402 13.185 373.788 13.2618 374.147 13.4109C374.507 13.56 374.834 13.7786 375.11 14.0542C375.385 14.3297 375.604 14.6568 375.753 15.0168C375.902 15.3768 375.978 15.7626 375.978 16.1522Z" fill="white"/>
<path d="M306.485 15.8128C306.485 16.634 306.159 17.4215 305.578 18.0021C304.997 18.5828 304.21 18.9091 303.389 18.9093H242.249C241.843 18.9093 241.44 18.8293 241.064 18.6737C240.689 18.5181 240.347 18.2901 240.06 18.0025C239.772 17.715 239.544 17.3736 239.388 16.9979C239.233 16.6221 239.153 16.2194 239.153 15.8128C239.153 15.4061 239.233 15.0034 239.388 14.6277C239.544 14.252 239.772 13.9106 240.06 13.6231C240.347 13.3356 240.689 13.1075 241.064 12.9519C241.44 12.7963 241.843 12.7163 242.249 12.7163H303.389C304.21 12.7166 304.997 13.0429 305.578 13.6235C306.159 14.2041 306.485 14.9916 306.485 15.8128Z" fill="#4FB6FE"/>
<path d="M363.903 37.4402C363.903 37.903 363.719 38.3467 363.392 38.6738C363.064 39.0009 362.62 39.1846 362.158 39.1846H352.017C351.554 39.1846 351.11 39.0008 350.783 38.6737C350.456 38.3466 350.272 37.9029 350.272 37.4402C350.272 37.2111 350.317 36.9843 350.405 36.7726C350.492 36.561 350.621 36.3687 350.783 36.2067C350.945 36.0447 351.137 35.9162 351.349 35.8285C351.561 35.7409 351.788 35.6958 352.017 35.6958H362.158C362.62 35.6957 363.064 35.8794 363.392 36.2066C363.719 36.5337 363.903 36.9774 363.903 37.4402Z" fill="#4FB6FE"/>
<path d="M380.756 44.0603C380.756 44.5229 380.572 44.9666 380.245 45.2937C379.918 45.6208 379.474 45.8045 379.011 45.8045H352.017C351.554 45.8045 351.11 45.6208 350.783 45.2937C350.456 44.9666 350.272 44.5229 350.272 44.0603C350.272 43.5976 350.456 43.1539 350.783 42.8267C351.11 42.4995 351.554 42.3157 352.017 42.3157H379.011C379.474 42.3157 379.918 42.4995 380.245 42.8267C380.572 43.1539 380.756 43.5976 380.756 44.0603Z" fill="#4FB6FE"/>
<path d="M374.522 50.6802C374.522 51.1427 374.338 51.5863 374.011 51.9133C373.684 52.2404 373.24 52.4242 372.778 52.4244H352.017C351.554 52.4244 351.11 52.2407 350.783 51.9136C350.456 51.5865 350.272 51.1429 350.272 50.6802C350.272 50.4511 350.317 50.2242 350.405 50.0126C350.492 49.8009 350.621 49.6085 350.783 49.4465C350.945 49.2845 351.137 49.156 351.349 49.0683C351.561 48.9807 351.788 48.9355 352.017 48.9355H372.778C373.241 48.9357 373.684 49.1196 374.011 49.4468C374.338 49.774 374.522 50.2177 374.522 50.6802Z" fill="#4FB6FE"/>
<path d="M388.781 59.9143C388.781 60.0205 388.76 60.1258 388.719 60.224C388.679 60.3222 388.619 60.4114 388.544 60.4866C388.469 60.5617 388.38 60.6214 388.281 60.662C388.183 60.7027 388.078 60.7236 387.972 60.7236H350.502C350.287 60.7237 350.081 60.6384 349.929 60.4867C349.778 60.3349 349.692 60.129 349.692 59.9143C349.692 59.8079 349.713 59.7027 349.754 59.6044C349.795 59.5062 349.854 59.417 349.929 59.3418C350.005 59.2667 350.094 59.2071 350.192 59.1664C350.29 59.1258 350.396 59.1049 350.502 59.105H387.972C388.078 59.1049 388.183 59.1258 388.281 59.1665C388.38 59.2072 388.469 59.2668 388.544 59.3419C388.619 59.4171 388.679 59.5063 388.719 59.6045C388.76 59.7027 388.781 59.808 388.781 59.9143Z" fill="white"/>
<path d="M388.781 90.6008C388.781 90.7071 388.76 90.8124 388.719 90.9106C388.679 91.0088 388.619 91.098 388.544 91.1731C388.469 91.2483 388.379 91.3079 388.281 91.3486C388.183 91.3892 388.078 91.4102 387.972 91.4101H350.502C350.287 91.4102 350.081 91.325 349.929 91.1732C349.778 91.0215 349.692 90.8156 349.692 90.6008C349.692 90.4945 349.713 90.3892 349.754 90.291C349.794 90.1928 349.854 90.1035 349.929 90.0284C350.005 89.9532 350.094 89.8936 350.192 89.853C350.29 89.8123 350.396 89.7914 350.502 89.7915H387.972C388.078 89.7915 388.183 89.8124 388.281 89.853C388.38 89.8937 388.469 89.9533 388.544 90.0285C388.619 90.1036 388.679 90.1929 388.719 90.2911C388.76 90.3893 388.781 90.4946 388.781 90.6008Z" fill="white"/>
<path d="M380.756 68.8442C380.756 69.3069 380.572 69.7506 380.245 70.0777C379.918 70.4049 379.474 70.5887 379.011 70.5887H352.017C351.554 70.5887 351.11 70.4049 350.783 70.0777C350.456 69.7506 350.272 69.3069 350.272 68.8442C350.272 68.6151 350.317 68.3883 350.405 68.1767C350.493 67.965 350.621 67.7727 350.783 67.6107C350.945 67.4487 351.137 67.3202 351.349 67.2326C351.561 67.1449 351.788 67.0998 352.017 67.0999H379.011C379.24 67.0998 379.467 67.1449 379.679 67.2326C379.891 67.3203 380.083 67.4487 380.245 67.6107C380.407 67.7727 380.535 67.965 380.623 68.1767C380.711 68.3883 380.756 68.6151 380.756 68.8442Z" fill="#4FB6FE"/>
<path d="M380.756 75.4644C380.756 75.927 380.572 76.3707 380.245 76.6978C379.918 77.025 379.474 77.2087 379.011 77.2087H352.017C351.554 77.2087 351.11 77.025 350.783 76.6978C350.456 76.3707 350.272 75.927 350.272 75.4644C350.272 75.0017 350.456 74.5579 350.783 74.2307C351.11 73.9036 351.554 73.7197 352.017 73.7197H379.011C379.474 73.7197 379.918 73.9036 380.245 74.2307C380.572 74.5579 380.756 75.0017 380.756 75.4644Z" fill="#4FB6FE"/>
<path d="M371.867 82.0845C371.867 82.547 371.684 82.9905 371.357 83.3176C371.03 83.6447 370.586 83.8285 370.124 83.8287H352.017C351.554 83.8287 351.11 83.645 350.783 83.3179C350.456 82.9908 350.272 82.5471 350.272 82.0845C350.272 81.6218 350.456 81.178 350.783 80.8508C351.11 80.5237 351.554 80.3399 352.017 80.3398H370.124C370.586 80.3401 371.03 80.524 371.357 80.8511C371.684 81.1783 371.867 81.6219 371.867 82.0845Z" fill="#4FB6FE"/>
<path d="M251.522 141.465H248.629V147.756H251.522V141.465Z" fill="#4FB6FE"/>
<path d="M230.484 178.126C229.767 179.396 228.157 180.425 226.887 180.425C225.617 180.425 225.169 179.396 225.885 178.126L244.964 143.765C245.679 142.495 247.289 141.465 248.558 141.465C249.829 141.465 250.277 142.495 249.562 143.765L230.484 178.126Z" fill="#3074FE"/>
<path d="M311.611 264.269C310.996 264.269 310.394 264.097 309.872 263.771C309.351 263.445 308.931 262.979 308.662 262.427L296.354 237.206L180.077 246.964L163.509 263.322C162.89 263.933 162.054 264.274 161.184 264.268C160.314 264.263 159.482 263.912 158.871 263.293C158.26 262.674 157.92 261.838 157.926 260.968C157.931 260.098 158.282 259.266 158.901 258.655L176.314 241.462C176.86 240.922 177.579 240.591 178.344 240.527L298.043 230.483C298.702 230.429 299.361 230.574 299.936 230.901C300.511 231.227 300.974 231.719 301.264 232.312L314.556 259.55C314.8 260.05 314.913 260.604 314.884 261.159C314.855 261.714 314.685 262.253 314.391 262.725C314.096 263.197 313.687 263.586 313.2 263.856C312.714 264.126 312.167 264.268 311.611 264.269Z" fill="#CEF8FF"/>
<path d="M353.79 216.425C357.602 220.63 365.604 224.888 370.114 224.523C373.899 224.216 371.435 229.13 371.435 229.13C371.435 229.13 359.848 229.93 359.616 229.98C359.384 230.029 353.206 230.881 353.018 229.271C352.829 227.66 351.796 223.191 351.796 223.191L353.79 216.425Z" fill="#F8A786"/>
<path d="M283.211 183.881H227.078L250.848 141.465H306.98L283.211 183.881Z" fill="#4FB6FE"/>
<path d="M301.937 201.851L209.973 189.221L179.972 162.937L174.943 121.065C174.7 119.055 173.79 117.184 172.358 115.752C170.926 114.32 169.055 113.409 167.044 113.166C166.891 113.148 136.513 112.656 136.513 112.656V182.446L178.238 230.11C179.878 233.57 182.537 236.446 185.859 238.351C189.181 240.256 193.005 241.1 196.82 240.768L198.676 240.604L301.225 231.506C304.879 231.182 308.285 229.523 310.794 226.847C313.303 224.171 314.739 220.664 314.827 216.997C314.915 213.329 313.65 209.758 311.272 206.964C308.894 204.171 305.571 202.351 301.937 201.851Z" fill="#CEF8FF"/>
<path d="M118.121 270.207C118.121 258.956 176.046 249.837 247.5 249.837C318.954 249.837 376.879 258.956 376.879 270.207C376.879 281.457 318.954 290.576 247.5 290.576C176.046 290.576 118.121 281.457 118.121 270.207Z" fill="#CEF8FF"/>
<path d="M191.327 154.993C181.073 155.104 171.603 148.961 168.65 139.477C163.206 121.991 163.402 102.142 169.265 88.3942C172.295 81.2895 189.155 67.713 200.966 72.4515C211.213 76.5627 216.575 82.4819 216.576 88.8572C216.577 92.7366 213.652 99.2417 212.965 100.679C209.792 107.321 209.988 116.134 213.565 127.623C217.108 139.002 209.926 150.88 197.523 154.154C195.5 154.688 193.419 154.97 191.327 154.993Z" fill="#13217D"/>
<path d="M341.153 257.722L304.456 185.979C303.527 184.153 302.047 182.666 300.226 181.728C298.405 180.79 296.335 180.449 294.309 180.753L293.708 180.807L249.364 188.008C246.645 188.442 244.211 189.939 242.596 192.169C240.981 194.398 240.317 197.178 240.752 199.896C241.657 205.559 248.039 212.567 253.701 211.663L290.325 202.485L331.93 263.023C333.914 266.161 342.999 261.247 341.153 257.722Z" fill="#F8A786"/>
<path d="M293.06 181.451L278.269 194.949L272.175 183.439L293.06 181.451Z" fill="#F6895C"/>
<path d="M357.781 220.825L303.647 161.133C302.248 159.626 300.413 158.594 298.398 158.184C296.383 157.773 294.29 158.004 292.414 158.844L292.051 159.005L250.99 177.456C249.746 178.015 248.625 178.813 247.69 179.805C246.755 180.797 246.024 181.964 245.54 183.238C245.056 184.512 244.828 185.87 244.868 187.232C244.908 188.595 245.217 189.936 245.776 191.18C248.125 196.409 256.114 201.51 261.344 199.162L294.309 180.753L350.258 228.348C352.992 230.861 360.483 223.748 357.781 220.825Z" fill="#F8A786"/>
<path d="M273.192 167.248C273.192 167.248 254.255 175.962 246.525 179.559C228.847 187.786 214.507 182.652 206.731 176.75C191.676 165.323 200.358 145.977 190.383 129.655C181.649 115.363 161.058 114.61 155.081 128.037C150.036 139.372 153.672 151.027 155.217 157.488C158.481 171.139 169.713 180.028 177.677 191.631C185.352 202.813 192.996 208.156 199.824 209.84L199.509 210.497C199.509 210.497 266.535 226.542 275.561 208.038C284.588 189.533 276.464 171.338 273.192 167.248Z" fill="#3074FE"/>
<path d="M197.879 174.606C194.271 166.589 193.477 159.843 192.709 153.321C192.028 147.536 191.384 142.072 188.7 136.555C184.405 127.726 186.788 122.612 190.735 114.14C191.571 112.345 192.436 110.488 193.341 108.383L194.202 108.752C193.292 110.871 192.385 112.818 191.584 114.536C187.754 122.756 185.443 127.717 189.543 136.145C192.296 141.805 192.948 147.345 193.639 153.212C194.399 159.664 195.185 166.336 198.733 174.221L197.879 174.606Z" fill="white"/>
<path d="M171.035 119.301C173.611 111.755 177.057 104.535 181.305 97.7864C182.252 96.3594 183.728 95.3673 185.407 95.0282C187.086 94.6892 188.831 95.031 190.258 95.9785C191.685 96.9259 192.677 98.4015 193.016 100.08C193.355 101.759 193.013 103.504 192.065 104.931C188.983 111.448 186.282 118.139 183.977 124.97C182.638 128.963 169.676 123.252 171.035 119.301Z" fill="#F8A786"/>
<path d="M190.258 95.9824C187.288 94.0074 185.835 99.0236 183.863 101.995C183.758 102.151 178.07 110.42 184.684 122.907C186.829 116.79 189.293 110.79 192.065 104.931C193.011 103.504 193.351 101.761 193.012 100.083C192.673 98.4052 191.683 96.9305 190.258 95.9824Z" fill="#F6895C"/>
<path d="M191.225 123.058C185.92 123.146 177.967 109.638 178.971 96.2024C179.976 82.7659 182.25 73.1158 192.837 74.2987C208.155 76.0108 209.615 91.3563 206.065 104.321C203.306 114.402 194.595 123.002 191.225 123.058Z" fill="#F8A786"/>
<path d="M171.047 111.453C172.21 114.152 173.25 113.148 174.13 111.38C176.631 106.351 179.814 106.176 179.535 102.509C179.017 95.6581 184.062 94.153 185.438 97.5183C187.141 101.68 190.961 100.821 190.67 98.2319C189.896 91.3338 201.69 103.105 211.357 97.117C221.851 90.6169 217.372 69.4821 193.657 69.5549C184.366 69.5823 158.815 83.1125 171.047 111.453Z" fill="#13217D"/>
<path d="M205.255 106.812C205.255 106.812 203.722 110.473 204.082 113.725C204.308 115.762 201.325 115.061 200.438 114.568C199.55 114.071 205.255 106.812 205.255 106.812Z" fill="#F8A786"/>
<path d="M240.62 180.689C240.62 182.431 232.233 183.843 228.926 183.843H197.666C194.358 183.843 191.676 182.431 191.676 180.689C191.676 178.947 194.358 177.535 197.666 177.535H234.63C237.938 177.535 240.62 178.947 240.62 180.689Z" fill="#4FB6FE"/>
<path d="M194.076 176.965C191.121 171.259 189.928 165.247 188.773 159.433C187.371 152.371 186.047 145.7 181.764 140.017C174.813 130.795 173.438 119.782 177.561 106.349L178.457 106.624C174.428 119.75 175.755 130.488 182.512 139.453C186.924 145.307 188.269 152.08 189.693 159.25C190.834 165.001 192.015 170.946 194.908 176.535L194.076 176.965Z" fill="white"/>
<path d="M210.882 172.23C205.036 175.14 179.583 174.002 172.32 173.654C171.138 173.596 169.961 173.462 168.796 173.255C168.126 173.083 168.435 172.964 168.163 172.45C167.244 169.193 167.235 165.564 167.231 162.196C167.152 155.261 167.649 148.331 168.717 141.478C171.261 126.22 158.395 120.532 154.683 127.458C153.533 129.604 152.226 134.507 152.077 136.904C151.888 139.929 151.756 142.958 151.681 145.991C151.459 154.886 151.456 164.091 153.329 172.811C154.246 177.083 155.783 181.342 158.898 184.352C161.734 187.093 166.594 187.777 170.535 187.787C177.897 187.804 205.675 179.756 212.485 177.799C216.449 176.659 213.813 170.772 210.882 172.23Z" fill="#F8A786"/>
<path d="M274.924 203.655L180.561 190.694L149.777 163.726L144.618 120.761C144.347 118.509 143.261 116.433 141.563 114.927C139.866 113.422 137.676 112.59 135.407 112.59C133.138 112.59 130.948 113.422 129.25 114.927C127.553 116.433 126.466 118.509 126.196 120.761L120.166 170.973C120.003 172.359 120.231 173.764 120.823 175.029L123.237 180.148L147.999 232.65C149.681 236.201 152.41 239.152 155.818 241.107C159.226 243.062 163.151 243.928 167.065 243.588L168.97 243.419L274.193 234.083C277.942 233.75 281.438 232.048 284.013 229.302C286.587 226.556 288.06 222.958 288.151 219.195C288.241 215.432 286.943 211.768 284.503 208.901C282.063 206.035 278.654 204.167 274.924 203.655Z" fill="#4FB6FE"/>
<path d="M160.422 232.65L131.367 180.148L128.534 175.029C127.844 173.792 127.508 172.388 127.563 170.973L129.919 120.761C129.995 118.855 130.713 117.029 131.957 115.582C133.201 114.134 134.896 113.149 136.77 112.786C136.508 112.732 136.241 112.689 135.971 112.657C133.509 112.35 131.026 113.03 129.064 114.549C127.103 116.068 125.823 118.301 125.503 120.761L119.386 170.973C119.221 172.361 119.452 173.767 120.053 175.029L122.502 180.148L147.624 232.65C149.36 236.219 152.14 239.175 155.594 241.129C159.049 243.082 163.015 243.94 166.968 243.588L168.9 243.419L173.734 242.996C170.937 242.248 168.318 240.947 166.032 239.17C163.745 237.393 161.838 235.176 160.422 232.65Z" fill="#1FA2FE"/>
<path d="M191.426 99.922C190.008 105.754 184.939 109.529 180.103 108.353C175.267 107.178 172.496 101.497 173.914 95.6648C175.332 89.8328 180.401 86.058 185.237 87.2335C190.073 88.4092 192.844 94.0903 191.426 99.922Z" fill="white"/>
<path d="M183.748 94.0197C183.664 94.0186 183.579 94.0128 183.494 94.0023C182.239 93.8501 181.053 92.2088 181.211 90.9977C182.686 79.6533 187.849 71.9207 194.944 69.3055C198.728 67.9101 204.926 70.7993 204.905 70.8738C204.737 71.4769 204.312 71.2494 203.195 71.1331C194.893 70.2884 187.705 79.3848 186.053 92.086C185.972 92.6345 185.693 93.1343 185.268 93.4907C184.843 93.8471 184.303 94.0353 183.748 94.0197Z" fill="white"/>
<path d="M289.21 266.128C288.595 266.128 287.992 265.956 287.471 265.63C286.949 265.304 286.53 264.839 286.26 264.286L273.953 239.065L157.675 248.822L141.107 265.182C140.488 265.791 139.652 266.131 138.783 266.125C137.914 266.119 137.083 265.768 136.472 265.149C135.862 264.531 135.522 263.696 135.527 262.826C135.532 261.957 135.881 261.126 136.499 260.515L153.912 243.32C154.458 242.78 155.177 242.449 155.942 242.386L275.642 232.341C276.3 232.287 276.96 232.432 277.535 232.759C278.109 233.085 278.572 233.577 278.863 234.17L292.155 261.409C292.398 261.909 292.511 262.463 292.482 263.018C292.453 263.574 292.284 264.112 291.989 264.584C291.695 265.056 291.285 265.445 290.799 265.715C290.313 265.985 289.766 266.127 289.21 266.128Z" fill="#4FB6FE"/>
<path d="M186.148 98.8441C185.329 102.217 182.397 104.4 179.6 103.72C176.803 103.04 175.201 99.7544 176.021 96.3817C176.841 93.0093 179.773 90.8263 182.569 91.5058C185.366 92.186 186.968 95.4713 186.148 98.8441Z" fill="#4FB6FE"/>
<path d="M310.614 197.691L304.625 185.979C303.669 184.159 302.166 182.685 300.328 181.763C298.49 180.841 296.409 180.518 294.379 180.839L293.986 180.902L292.535 189.866L310.614 197.691Z" fill="#F8A786"/>
<path d="M312.911 201.99C312.825 201.99 312.742 201.967 312.669 201.923C312.596 201.88 312.536 201.817 312.496 201.742L304.212 186.199C303.425 184.694 302.243 183.432 300.792 182.548C299.342 181.664 297.678 181.192 295.979 181.183C295.856 181.181 295.738 181.131 295.651 181.043C295.565 180.955 295.517 180.837 295.517 180.713C295.517 180.59 295.566 180.471 295.653 180.384C295.74 180.297 295.858 180.247 295.982 180.246H295.984C297.852 180.256 299.682 180.774 301.278 181.746C302.873 182.717 304.174 184.106 305.04 185.761L313.323 201.301C313.362 201.373 313.38 201.453 313.378 201.533C313.376 201.614 313.353 201.693 313.312 201.763C313.27 201.832 313.212 201.889 313.141 201.929C313.071 201.969 312.991 201.99 312.911 201.99Z" fill="white"/>
<path d="M347.517 225.974C347.517 225.974 347.212 231.628 352.899 235.063C358.589 238.499 359.432 240.026 359.584 240.284C359.737 240.541 360.939 240.127 360.696 239.633C360.452 239.139 357.215 234.059 356.85 233.215C356.484 232.371 358.419 231.519 360.704 232.157C362.989 232.795 367.861 234.949 370.794 233.652C373.654 232.387 377.002 228.53 377.903 224.963C378.803 221.397 373.725 222.097 371.384 223.121C369.308 224.03 368.552 224.47 368.552 224.47C368.552 224.47 371.438 225.962 369.643 227.923C367.544 230.217 359.8 228.253 354.101 226.869C348.402 225.487 347.517 225.974 347.517 225.974Z" fill="#13217D"/>
<path d="M338.114 251.773C340.054 257.107 345.851 264.075 350.163 265.442C353.784 266.59 349.644 270.207 349.644 270.207C349.644 270.207 338.615 266.566 338.382 266.524C338.148 266.482 332.108 264.935 332.542 263.372C332.976 261.81 333.71 257.282 333.71 257.282L338.114 251.773Z" fill="#F8A786"/>
<path d="M328.697 258.241C328.697 258.241 326.276 263.358 330.242 268.69C334.209 274.022 334.413 275.754 334.456 276.05C334.5 276.346 335.77 276.417 335.732 275.866C335.692 275.317 334.617 269.391 334.598 268.473C334.579 267.554 336.691 267.496 338.567 268.951C340.441 270.404 344.135 274.241 347.342 274.15C350.467 274.06 355.026 271.756 357.209 268.795C359.39 265.834 354.425 264.562 351.87 264.623C349.604 264.679 348.738 264.802 348.738 264.802C348.738 264.802 350.846 267.276 348.443 268.412C345.632 269.741 339.205 264.994 334.453 261.56C329.701 258.124 328.697 258.241 328.697 258.241Z" fill="#13217D"/>
<path d="M271.474 162.673C269.913 165.631 266.247 168.03 263.289 168.03C260.33 168.03 259.198 165.631 260.759 162.673C262.32 159.715 265.986 157.315 268.945 157.315C271.903 157.315 273.036 159.715 271.474 162.673Z" fill="#CEF8FF"/>
<path d="M225.926 180.883C225.926 181.142 225.823 181.391 225.639 181.575C225.456 181.758 225.207 181.861 224.947 181.861H216.924C216.665 181.861 216.416 181.758 216.232 181.575C216.048 181.391 215.945 181.142 215.945 180.883C215.945 180.754 215.97 180.627 216.019 180.508C216.068 180.389 216.141 180.281 216.232 180.19C216.322 180.099 216.43 180.027 216.549 179.978C216.668 179.929 216.795 179.903 216.924 179.903H224.947C225.076 179.903 225.203 179.929 225.322 179.978C225.441 180.027 225.549 180.099 225.64 180.19C225.731 180.281 225.803 180.389 225.852 180.508C225.901 180.627 225.926 180.754 225.926 180.883Z" fill="#3074FE"/>
<path d="M202.849 174.184C202.849 174.184 207.821 173.081 210.419 171.786C213.319 170.339 214.924 168.67 216.764 169.208C218.605 169.746 223.884 171.3 225.767 172.624C227.649 173.948 225.831 175.26 224.665 174.623C223.5 173.985 224.082 175.902 222.624 175.875C220.799 175.941 218.993 176.272 217.263 176.859C216.343 177.146 214.26 177.218 210.868 178.262C208.702 178.931 206.415 178.41 204.534 177.903C200.293 176.761 202.849 174.184 202.849 174.184Z" fill="#F8A786"/>
<path d="M279.513 120.423C279.505 123.069 280.48 125.623 282.25 127.589C281.046 132.236 282.317 136.443 284.081 136.634C285.666 136.997 287.453 134.718 289.871 132.531C303.646 137.724 326.278 133.691 326.278 120.423C326.278 100.569 279.513 100.569 279.513 120.423Z" fill="#FF8E6E"/>
<path d="M316.339 121.102C316.339 121.741 316.15 122.366 315.795 122.897C315.44 123.429 314.935 123.843 314.345 124.088C313.755 124.332 313.105 124.396 312.478 124.272C311.851 124.147 311.275 123.839 310.824 123.387C310.372 122.935 310.064 122.36 309.939 121.733C309.814 121.106 309.878 120.456 310.123 119.866C310.368 119.275 310.782 118.771 311.313 118.416C311.844 118.061 312.469 117.871 313.108 117.871C313.533 117.871 313.953 117.955 314.345 118.117C314.737 118.279 315.093 118.517 315.393 118.817C315.693 119.117 315.931 119.473 316.094 119.866C316.256 120.258 316.339 120.678 316.339 121.102Z" fill="white"/>
<path d="M306.127 121.102C306.127 121.741 305.937 122.366 305.582 122.897C305.227 123.429 304.723 123.843 304.132 124.088C303.542 124.332 302.892 124.396 302.265 124.272C301.638 124.147 301.063 123.839 300.611 123.387C300.159 122.935 299.851 122.36 299.726 121.733C299.602 121.106 299.666 120.456 299.91 119.866C300.155 119.275 300.569 118.771 301.1 118.416C301.632 118.061 302.256 117.871 302.896 117.871C303.32 117.871 303.74 117.955 304.132 118.117C304.524 118.279 304.88 118.517 305.18 118.817C305.48 119.117 305.719 119.473 305.881 119.866C306.043 120.258 306.127 120.678 306.127 121.102Z" fill="white"/>
<path d="M295.914 121.102C295.914 121.741 295.724 122.366 295.369 122.897C295.014 123.429 294.51 123.843 293.919 124.088C293.329 124.332 292.679 124.396 292.052 124.272C291.426 124.147 290.85 123.839 290.398 123.387C289.946 122.935 289.638 122.36 289.514 121.733C289.389 121.106 289.453 120.456 289.697 119.866C289.942 119.275 290.356 118.771 290.887 118.416C291.419 118.061 292.044 117.871 292.683 117.871C293.107 117.871 293.527 117.955 293.919 118.117C294.311 118.279 294.667 118.517 294.968 118.817C295.268 119.117 295.506 119.473 295.668 119.866C295.83 120.258 295.914 120.678 295.914 121.102Z" fill="white"/>
<path d="M184.588 49.4458C184.596 52.0911 183.62 54.645 181.851 56.6115C183.054 61.2588 181.783 65.4645 180.019 65.6558C178.434 66.0188 176.647 63.741 174.23 61.553C160.455 66.7466 137.822 62.7136 137.822 49.4458C137.822 29.5919 184.588 29.5919 184.588 49.4458Z" fill="#515070"/>
<path d="M147.761 50.1248C147.761 50.7639 147.95 51.3887 148.305 51.9201C148.66 52.4516 149.165 52.8658 149.755 53.1104C150.346 53.3551 150.995 53.4191 151.622 53.2945C152.249 53.1698 152.825 52.8621 153.277 52.4102C153.729 51.9583 154.037 51.3825 154.161 50.7557C154.286 50.1289 154.222 49.4791 153.977 48.8887C153.733 48.2982 153.319 47.7936 152.787 47.4385C152.256 47.0835 151.631 46.894 150.992 46.894C150.135 46.8941 149.313 47.2345 148.707 47.8403C148.101 48.4462 147.761 49.2679 147.761 50.1248Z" fill="white"/>
<path d="M157.974 50.1248C157.974 50.7638 158.163 51.3885 158.518 51.9199C158.873 52.4513 159.378 52.8654 159.968 53.11C160.559 53.3546 161.208 53.4186 161.835 53.2939C162.462 53.1693 163.038 52.8616 163.49 52.4097C163.941 51.9578 164.249 51.3821 164.374 50.7553C164.498 50.1285 164.434 49.4789 164.19 48.8885C163.945 48.2981 163.531 47.7935 163 47.4385C162.468 47.0834 161.844 46.894 161.205 46.894C160.348 46.8941 159.526 47.2345 158.92 47.8403C158.314 48.4462 157.974 49.2679 157.974 50.1248Z" fill="white"/>
<path d="M168.187 50.1248C168.187 50.7638 168.376 51.3885 168.731 51.9199C169.086 52.4512 169.591 52.8654 170.181 53.11C170.771 53.3546 171.421 53.4186 172.048 53.294C172.675 53.1693 173.25 52.8616 173.702 52.4098C174.154 51.9579 174.462 51.3822 174.587 50.7555C174.711 50.1287 174.647 49.479 174.403 48.8886C174.158 48.2982 173.744 47.7936 173.213 47.4386C172.681 47.0835 172.057 46.894 171.418 46.894C170.561 46.894 169.739 47.2344 169.133 47.8403C168.527 48.4461 168.187 49.2679 168.187 50.1248Z" fill="white"/>
<path d="M194.944 110.378C194.114 112.311 192.234 113.36 190.745 112.721C189.257 112.082 188.723 109.996 189.553 108.063C190.383 106.13 192.263 105.081 193.752 105.721C195.241 106.36 195.774 108.446 194.944 110.378Z" fill="#F88B7F"/>
<path d="M203.188 106.649C202.089 109.413 200.205 111.259 198.98 110.771C197.755 110.284 197.653 107.649 198.753 104.885C199.852 102.121 201.736 100.275 202.961 100.762C204.186 101.249 204.287 103.885 203.188 106.649Z" stroke="white" stroke-width="1.83674" stroke-miterlimit="10"/>
<path d="M209 109.175C207.901 111.939 206.017 113.785 204.793 113.297C203.568 112.811 203.466 110.175 204.565 107.411C205.664 104.647 207.548 102.801 208.773 103.288C209.998 103.775 210.1 106.411 209 109.175Z" stroke="white" stroke-width="1.83674" stroke-miterlimit="10"/>
<path d="M190.046 98.9892L189.607 99.8167L198.594 104.59L199.034 103.762L190.046 98.9892Z" fill="white"/>
<path d="M204.974 107.641L204.157 107.182C204.163 107.139 204.1 107.047 203.941 106.973C203.831 106.91 203.701 106.891 203.577 106.92L202.71 106.581C202.773 106.414 202.883 106.268 203.025 106.162C203.168 106.055 203.339 105.991 203.517 105.977C203.787 105.953 204.06 105.998 204.308 106.11C204.556 106.221 204.771 106.395 204.932 106.614C205.036 106.763 205.095 106.939 205.103 107.121C205.11 107.303 205.065 107.483 204.974 107.641Z" fill="white"/>
<path d="M94.2492 207.722H178.776C180.019 207.722 181.21 208.215 182.089 209.094C182.968 209.973 183.461 211.164 183.461 212.407V223.844C183.461 225.086 182.968 226.278 182.089 227.157C181.21 228.035 180.019 228.529 178.776 228.529H94.2492C93.0067 228.529 91.8151 228.035 90.9365 227.157C90.0579 226.278 89.5643 225.086 89.5643 223.844V212.407C89.5643 211.791 89.6855 211.182 89.9209 210.614C90.1563 210.045 90.5014 209.529 90.9365 209.094C91.3715 208.659 91.888 208.314 92.4564 208.078C93.0248 207.843 93.634 207.722 94.2492 207.722Z" fill="#FF8E6E"/>
<path d="M121.966 212.933C121.966 213.113 121.931 213.291 121.862 213.457C121.793 213.623 121.692 213.773 121.565 213.901C121.438 214.028 121.287 214.128 121.121 214.197C120.955 214.266 120.777 214.301 120.598 214.301H99.4259C99.2462 214.301 99.0682 214.266 98.9022 214.197C98.7361 214.128 98.5852 214.028 98.4581 213.901C98.331 213.774 98.2302 213.623 98.1615 213.457C98.0927 213.291 98.0573 213.113 98.0574 212.933C98.0573 212.753 98.0927 212.575 98.1615 212.409C98.2302 212.243 98.331 212.092 98.4581 211.965C98.5852 211.838 98.7361 211.738 98.9022 211.669C99.0682 211.6 99.2462 211.565 99.4259 211.565H120.598C120.777 211.565 120.955 211.6 121.121 211.669C121.287 211.738 121.438 211.838 121.565 211.965C121.692 212.092 121.793 212.243 121.862 212.409C121.931 212.575 121.966 212.753 121.966 212.933Z" fill="white"/>
<path d="M134.151 218.125C134.151 218.488 134.007 218.836 133.75 219.092C133.494 219.349 133.145 219.493 132.783 219.493H99.4259C99.063 219.493 98.715 219.349 98.4583 219.092C98.2017 218.836 98.0575 218.488 98.0574 218.125C98.0573 217.945 98.0927 217.767 98.1615 217.601C98.2302 217.435 98.331 217.284 98.4581 217.157C98.5852 217.03 98.7361 216.929 98.9022 216.861C99.0682 216.792 99.2462 216.757 99.4259 216.757H132.783C132.962 216.757 133.14 216.792 133.306 216.861C133.472 216.929 133.623 217.03 133.75 217.157C133.877 217.284 133.978 217.435 134.047 217.601C134.116 217.767 134.151 217.945 134.151 218.125Z" fill="white"/>
<path d="M114.995 223.318C114.994 223.681 114.85 224.028 114.594 224.285C114.337 224.541 113.989 224.685 113.627 224.685H99.4259C99.0632 224.685 98.7152 224.541 98.4586 224.285C98.202 224.028 98.0577 223.681 98.0574 223.318C98.0573 223.138 98.0927 222.96 98.1614 222.794C98.2302 222.628 98.331 222.477 98.458 222.35C98.5851 222.223 98.736 222.122 98.9021 222.053C99.0681 221.984 99.2461 221.949 99.4259 221.949H113.627C113.99 221.949 114.338 222.093 114.594 222.35C114.851 222.607 114.995 222.955 114.995 223.318Z" fill="white"/>
<path d="M178.529 218.125C178.529 219.364 178.162 220.576 177.473 221.606C176.785 222.636 175.807 223.439 174.662 223.914C173.517 224.388 172.257 224.512 171.042 224.27C169.827 224.029 168.71 223.432 167.834 222.556C166.958 221.68 166.361 220.563 166.119 219.348C165.878 218.133 166.002 216.873 166.476 215.728C166.95 214.583 167.753 213.605 168.783 212.917C169.814 212.228 171.025 211.861 172.264 211.861C173.926 211.861 175.519 212.521 176.694 213.696C177.869 214.87 178.529 216.464 178.529 218.125Z" fill="white"/>
<path d="M176.721 295.216C176.721 285.536 201.469 277.692 232 277.692C262.531 277.692 287.279 285.536 287.279 295.216C287.279 304.893 262.531 312.738 232 312.738C201.469 312.738 176.721 304.893 176.721 295.216Z" fill="#CEF8FF"/>
<path d="M269.646 276.83C265.277 246.734 225.799 245.893 202.017 270.517C194.371 278.432 204.862 290.197 218.707 295.124C218.293 296.621 218.433 298.216 219.102 299.617C221.164 304.096 227.113 304.58 231.483 305.033C268.188 304.332 270.353 281.696 269.646 276.83Z" fill="#1FA2FE"/>
<path d="M226.05 264.67C223.854 267.293 221.834 270.059 220.003 272.948C214.727 271.344 209.097 271.323 203.81 272.888C201.63 269.234 199.238 264.093 197.797 264.67C196.52 265.18 198.016 268.604 192.3 281.309C187.051 292.977 200.417 301.442 211.815 301.442C223.211 301.442 232.45 294.792 232.45 286.587C234.08 275.843 226.05 264.67 226.05 264.67Z" fill="#1FA2FE"/>
<path d="M223.517 279.348C223.517 279.348 224.82 267.917 222.687 265.378C221.261 263.684 218.094 268.124 217.146 272.056C217.051 272.453 220.391 272.939 223.517 279.348Z" fill="#1F8CFE"/>
<path d="M227.757 284.191C227.725 284.191 227.692 284.188 227.661 284.183C227.528 284.157 227.41 284.079 227.334 283.967C227.259 283.855 227.23 283.718 227.256 283.585C228.905 274.989 223.276 266.04 222.255 265.511C220.958 265.595 218.717 269.157 217.627 272.226C217.583 272.35 217.492 272.453 217.374 272.512C217.256 272.571 217.119 272.581 216.994 272.542C212.594 271.207 207.9 271.189 203.49 272.491C203.364 272.529 203.228 272.517 203.111 272.457C202.993 272.398 202.904 272.295 202.861 272.17C202.147 270.145 201.261 268.184 200.213 266.31C200.142 266.195 200.12 266.056 200.151 265.925C200.182 265.793 200.264 265.68 200.379 265.608C200.494 265.537 200.632 265.515 200.764 265.545C200.895 265.576 201.009 265.658 201.081 265.773C202.091 267.568 202.954 269.443 203.66 271.379C207.975 270.2 212.529 270.217 216.835 271.429C217.819 268.897 220.163 264.489 222.301 264.489C222.549 264.489 222.921 264.594 223.598 265.413C225.914 268.216 229.658 276.479 228.258 283.777C228.235 283.893 228.173 283.998 228.082 284.074C227.991 284.15 227.876 284.191 227.757 284.191Z" fill="#CEF8FF"/>
<path d="M219.493 302.152C219.403 302.152 219.315 302.128 219.238 302.083C219.16 302.039 219.095 301.974 219.051 301.896C218.116 300.374 217.69 298.595 217.834 296.815C217.977 295.035 218.683 293.347 219.85 291.995C222.09 289.374 225.579 288.375 228.53 289.509C232.599 291.141 236.994 291.798 241.363 291.426C245.731 291.054 249.952 289.665 253.687 287.369C253.803 287.299 253.942 287.278 254.073 287.311C254.204 287.344 254.317 287.427 254.387 287.543C254.457 287.659 254.478 287.797 254.445 287.929C254.412 288.06 254.329 288.173 254.213 288.243C250.345 290.62 245.973 292.059 241.448 292.444C236.923 292.829 232.371 292.149 228.157 290.459C225.614 289.483 222.585 290.366 220.625 292.659C219.599 293.852 218.979 295.341 218.855 296.91C218.73 298.479 219.109 300.047 219.935 301.387C220.002 301.504 220.021 301.643 219.985 301.774C219.95 301.904 219.865 302.016 219.747 302.083C219.67 302.128 219.583 302.152 219.493 302.152Z" fill="#CEF8FF"/>
<path d="M198.672 287.451C198.142 287.478 197.611 287.396 197.113 287.212C195.821 286.748 194.788 285.698 194.6 284.66C194.572 284.506 194.607 284.348 194.695 284.22C194.784 284.092 194.92 284.005 195.074 283.977C195.227 283.949 195.385 283.983 195.513 284.072C195.641 284.161 195.729 284.297 195.756 284.45C195.901 284.844 196.134 285.198 196.439 285.485C196.743 285.773 197.11 285.986 197.511 286.107C197.942 286.276 198.41 286.325 198.867 286.249C199.324 286.173 199.751 285.975 200.104 285.675C200.163 285.625 200.231 285.588 200.305 285.564C200.378 285.541 200.456 285.532 200.533 285.539C200.609 285.545 200.684 285.567 200.753 285.602C200.821 285.638 200.882 285.687 200.932 285.745C200.981 285.804 201.019 285.873 201.042 285.946C201.065 286.02 201.074 286.097 201.067 286.174C201.061 286.251 201.039 286.325 201.004 286.394C200.968 286.462 200.919 286.523 200.86 286.573C200.248 287.099 199.479 287.407 198.672 287.451Z" fill="white"/>
<path d="M208.774 288.038C207.516 288.106 206.283 287.649 205.694 286.874C205.601 286.75 205.561 286.594 205.582 286.441C205.604 286.287 205.685 286.148 205.809 286.054C205.932 285.96 206.088 285.919 206.242 285.939C206.395 285.96 206.535 286.04 206.63 286.163C206.936 286.449 207.305 286.66 207.707 286.779C208.11 286.897 208.534 286.92 208.947 286.845C209.407 286.8 209.848 286.631 210.22 286.356C210.592 286.081 210.883 285.71 211.062 285.283C211.092 285.212 211.136 285.148 211.191 285.094C211.246 285.04 211.311 284.998 211.382 284.969C211.454 284.94 211.53 284.926 211.607 284.926C211.684 284.927 211.76 284.943 211.831 284.973C211.902 285.003 211.966 285.047 212.02 285.102C212.074 285.157 212.117 285.222 212.145 285.294C212.174 285.365 212.189 285.441 212.188 285.518C212.187 285.596 212.171 285.672 212.141 285.743C211.884 286.36 211.464 286.896 210.928 287.295C210.391 287.694 209.757 287.941 209.092 288.01C208.986 288.023 208.879 288.032 208.774 288.038Z" fill="white"/>
<path d="M206.006 290.576C206.006 291.495 204.722 293.419 203.14 293.416C201.562 293.415 200.282 291.486 200.284 290.568C200.285 289.648 206.007 289.658 206.006 290.576Z" fill="white"/>
<path d="M244.976 291.891C244.894 291.891 244.813 291.871 244.74 291.833C244.667 291.795 244.604 291.74 244.557 291.672C242.938 289.349 243.29 284.878 246.185 282.372C246.235 282.328 246.294 282.295 246.358 282.273C246.421 282.252 246.488 282.244 246.555 282.248C246.622 282.253 246.687 282.271 246.747 282.301C246.807 282.331 246.861 282.373 246.905 282.423C246.948 282.474 246.982 282.533 247.003 282.596C247.024 282.66 247.032 282.727 247.028 282.794C247.023 282.861 247.005 282.926 246.975 282.986C246.944 283.046 246.903 283.099 246.852 283.143C244.396 285.27 244.051 289.161 245.394 291.089C245.448 291.166 245.479 291.255 245.485 291.348C245.491 291.441 245.471 291.534 245.428 291.617C245.385 291.699 245.32 291.769 245.241 291.817C245.161 291.865 245.07 291.891 244.976 291.891Z" fill="#CEF8FF"/>
<path d="M208.464 292.205C208.333 292.205 208.206 292.154 208.111 292.063C208.016 291.972 207.96 291.847 207.955 291.716C207.95 291.585 207.995 291.456 208.082 291.357C208.169 291.259 208.291 291.198 208.422 291.187L213.411 290.771C213.478 290.766 213.545 290.773 213.609 290.794C213.673 290.814 213.732 290.847 213.783 290.89C213.834 290.933 213.876 290.986 213.907 291.046C213.938 291.105 213.956 291.17 213.962 291.237C213.968 291.304 213.96 291.371 213.939 291.435C213.919 291.499 213.886 291.558 213.843 291.609C213.8 291.66 213.747 291.702 213.687 291.733C213.628 291.763 213.563 291.782 213.496 291.788L208.507 292.203C208.493 292.204 208.478 292.205 208.464 292.205Z" fill="white"/>
<path d="M211.474 295.725C211.43 295.725 211.386 295.719 211.344 295.708L207.488 294.689C207.423 294.672 207.361 294.643 207.308 294.602C207.254 294.562 207.209 294.511 207.174 294.453C207.14 294.395 207.118 294.331 207.109 294.264C207.1 294.197 207.104 294.13 207.121 294.064C207.138 293.999 207.168 293.938 207.209 293.885C207.25 293.831 207.301 293.786 207.359 293.753C207.418 293.719 207.482 293.697 207.549 293.689C207.616 293.68 207.684 293.685 207.749 293.703L211.604 294.722C211.724 294.754 211.828 294.828 211.897 294.93C211.966 295.033 211.996 295.158 211.98 295.281C211.964 295.403 211.904 295.516 211.811 295.598C211.718 295.68 211.598 295.725 211.474 295.725Z" fill="white"/>
<path d="M198.293 291.425C198.27 291.425 198.246 291.423 198.223 291.42L193.794 290.807C193.728 290.798 193.664 290.776 193.606 290.742C193.548 290.708 193.498 290.663 193.457 290.61C193.417 290.556 193.387 290.496 193.37 290.431C193.353 290.366 193.349 290.298 193.358 290.232C193.368 290.166 193.39 290.102 193.424 290.044C193.458 289.986 193.503 289.936 193.556 289.895C193.61 289.855 193.671 289.825 193.735 289.808C193.8 289.792 193.868 289.788 193.934 289.797L198.363 290.41C198.49 290.427 198.607 290.493 198.688 290.593C198.77 290.693 198.81 290.821 198.802 290.95C198.793 291.078 198.735 291.199 198.641 291.287C198.547 291.376 198.422 291.425 198.293 291.425Z" fill="white"/>
<path d="M196.469 294.343C196.35 294.343 196.234 294.301 196.142 294.224C196.05 294.148 195.989 294.041 195.967 293.923C195.946 293.806 195.967 293.684 196.026 293.58C196.085 293.476 196.179 293.397 196.291 293.355L198.532 292.52C198.659 292.473 198.799 292.478 198.922 292.534C199.045 292.59 199.141 292.693 199.188 292.82C199.235 292.947 199.23 293.087 199.174 293.21C199.118 293.333 199.015 293.429 198.888 293.476L196.648 294.311C196.59 294.332 196.53 294.343 196.469 294.343Z" fill="white"/>
<path d="M199.094 273.122C199.094 270.23 198.71 266.479 197.886 264.657C197.856 264.659 197.826 264.663 197.797 264.67C196.716 265.102 197.621 267.627 194.453 276.107C194.961 275.3 195.64 274.614 196.442 274.099C197.244 273.583 198.149 273.249 199.094 273.122Z" fill="#1F8CFE"/>
<path d="M241.441 270.001C241.475 270.473 241.687 270.915 242.033 271.238C242.38 271.561 242.836 271.74 243.31 271.741C243.356 271.741 243.402 271.739 243.448 271.737C243.944 271.7 244.405 271.468 244.731 271.092C245.056 270.715 245.218 270.225 245.183 269.729C244.73 263.519 241.47 257.01 235.807 253.324C233.589 253.566 231.391 253.961 229.229 254.506C237.454 256.492 241.047 264.589 241.441 270.001Z" fill="#1F8CFE"/>
<path d="M248.895 266.303C248.93 266.775 249.142 267.217 249.488 267.539C249.835 267.862 250.291 268.042 250.765 268.042C250.811 268.042 250.856 268.039 250.903 268.037C251.399 268.001 251.86 267.769 252.186 267.393C252.511 267.017 252.673 266.527 252.637 266.031C252.295 261.557 250.619 257.288 247.827 253.776C245.81 253.376 243.763 253.146 241.707 253.088C246.412 256.43 248.595 262.156 248.895 266.303Z" fill="#1F8CFE"/>
<path d="M233.986 273.699C234.02 274.172 234.232 274.614 234.578 274.936C234.925 275.259 235.381 275.439 235.854 275.439C235.901 275.439 235.946 275.438 235.993 275.434C236.489 275.398 236.95 275.166 237.275 274.79C237.601 274.414 237.763 273.923 237.727 273.427C237.208 266.276 232.967 258.729 225.617 255.552C223.628 256.209 221.677 256.979 219.774 257.857C229.422 258.917 233.562 267.868 233.986 273.699Z" fill="#1F8CFE"/>
<defs>
<linearGradient id="paint0_linear" x1="0" y1="13.8618" x2="287.011" y2="442.78" gradientUnits="userSpaceOnUse">
<stop stop-color="#606166"/>
<stop offset="1" stop-color="#B18DFF"/>
</linearGradient>
</defs>
</svg>
